Simulate reflexes
version=1
nRows=4
nColumns=195
inDegrees=yes
endheader
time	/jointset/ground_platform/platform_rx/value	/jointset/ground_platform/platform_rx/speed	/jointset/ground_platform/platform_ry/value	/jointset/ground_platform/platform_ry/speed	/jointset/ground_platform/platform_rz/value	/jointset/ground_platform/platform_rz/speed	/jointset/ground_platform/platform_ty/value	/jointset/ground_platform/platform_ty/speed	/jointset/ground_pelvis/pelvis_tilt/value	/jointset/ground_pelvis/pelvis_tilt/speed	/jointset/ground_pelvis/pelvis_list/value	/jointset/ground_pelvis/pelvis_list/speed	/jointset/ground_pelvis/pelvis_rotation/value	/jointset/ground_pelvis/pelvis_rotation/speed	/jointset/ground_pelvis/pelvis_tx/value	/jointset/ground_pelvis/pelvis_tx/speed	/jointset/ground_pelvis/pelvis_ty/value	/jointset/ground_pelvis/pelvis_ty/speed	/jointset/ground_pelvis/pelvis_tz/value	/jointset/ground_pelvis/pelvis_tz/speed	/jointset/hip_r/hip_flexion_r/value	/jointset/hip_r/hip_flexion_r/speed	/jointset/hip_r/hip_adduction_r/value	/jointset/hip_r/hip_adduction_r/speed	/jointset/hip_r/hip_rotation_r/value	/jointset/hip_r/hip_rotation_r/speed	/jointset/knee_r/knee_angle_r/value	/jointset/knee_r/knee_angle_r/speed	/jointset/ankle_r/ankle_angle_r/value	/jointset/ankle_r/ankle_angle_r/speed	/jointset/subtalar_r/subtalar_angle_r/value	/jointset/subtalar_r/subtalar_angle_r/speed	/jointset/mtp_r/mtp_angle_r/value	/jointset/mtp_r/mtp_angle_r/speed	/jointset/hip_l/hip_flexion_l/value	/jointset/hip_l/hip_flexion_l/speed	/jointset/hip_l/hip_adduction_l/value	/jointset/hip_l/hip_adduction_l/speed	/jointset/hip_l/hip_rotation_l/value	/jointset/hip_l/hip_rotation_l/speed	/jointset/knee_l/knee_angle_l/value	/jointset/knee_l/knee_angle_l/speed	/jointset/ankle_l/ankle_angle_l/value	/jointset/ankle_l/ankle_angle_l/speed	/jointset/subtalar_l/subtalar_angle_l/value	/jointset/subtalar_l/subtalar_angle_l/speed	/jointset/mtp_l/mtp_angle_l/value	/jointset/mtp_l/mtp_angle_l/speed	/jointset/back/lumbar_extension/value	/jointset/back/lumbar_extension/speed	/jointset/back/lumbar_bending/value	/jointset/back/lumbar_bending/speed	/jointset/back/lumbar_rotation/value	/jointset/back/lumbar_rotation/speed	/forceset/glut_med1_r/activation	/forceset/glut_med1_r/fiber_length	/forceset/glut_med2_r/activation	/forceset/glut_med2_r/fiber_length	/forceset/glut_med3_r/activation	/forceset/glut_med3_r/fiber_length	/forceset/bifemlh_r/activation	/forceset/bifemlh_r/fiber_length	/forceset/bifemsh_r/activation	/forceset/bifemsh_r/fiber_length	/forceset/sar_r/activation	/forceset/sar_r/fiber_length	/forceset/add_mag2_r/activation	/forceset/add_mag2_r/fiber_length	/forceset/tfl_r/activation	/forceset/tfl_r/fiber_length	/forceset/pect_r/activation	/forceset/pect_r/fiber_length	/forceset/grac_r/activation	/forceset/grac_r/fiber_length	/forceset/glut_max1_r/activation	/forceset/glut_max1_r/fiber_length	/forceset/glut_max2_r/activation	/forceset/glut_max2_r/fiber_length	/forceset/glut_max3_r/activation	/forceset/glut_max3_r/fiber_length	/forceset/iliacus_r/activation	/forceset/iliacus_r/fiber_length	/forceset/psoas_r/activation	/forceset/psoas_r/fiber_length	/forceset/quad_fem_r/activation	/forceset/quad_fem_r/fiber_length	/forceset/gem_r/activation	/forceset/gem_r/fiber_length	/forceset/peri_r/activation	/forceset/peri_r/fiber_length	/forceset/rect_fem_r/activation	/forceset/rect_fem_r/fiber_length	/forceset/vas_int_r/activation	/forceset/vas_int_r/fiber_length	/forceset/med_gas_r/activation	/forceset/med_gas_r/fiber_length	/forceset/lat_gas_r/activation	/forceset/lat_gas_r/fiber_length	/forceset/soleus_r/activation	/forceset/soleus_r/fiber_length	/forceset/tib_post_r/activation	/forceset/tib_post_r/fiber_length	/forceset/flex_dig_r/activation	/forceset/flex_dig_r/fiber_length	/forceset/flex_hal_r/activation	/forceset/flex_hal_r/fiber_length	/forceset/tib_ant_r/activation	/forceset/tib_ant_r/fiber_length	/forceset/per_brev_r/activation	/forceset/per_brev_r/fiber_length	/forceset/per_long_r/activation	/forceset/per_long_r/fiber_length	/forceset/per_tert_r/activation	/forceset/per_tert_r/fiber_length	/forceset/ext_dig_r/activation	/forceset/ext_dig_r/fiber_length	/forceset/ext_hal_r/activation	/forceset/ext_hal_r/fiber_length	/forceset/glut_med1_l/activation	/forceset/glut_med1_l/fiber_length	/forceset/glut_med2_l/activation	/forceset/glut_med2_l/fiber_length	/forceset/glut_med3_l/activation	/forceset/glut_med3_l/fiber_length	/forceset/bifemlh_l/activation	/forceset/bifemlh_l/fiber_length	/forceset/bifemsh_l/activation	/forceset/bifemsh_l/fiber_length	/forceset/sar_l/activation	/forceset/sar_l/fiber_length	/forceset/add_mag2_l/activation	/forceset/add_mag2_l/fiber_length	/forceset/tfl_l/activation	/forceset/tfl_l/fiber_length	/forceset/pect_l/activation	/forceset/pect_l/fiber_length	/forceset/grac_l/activation	/forceset/grac_l/fiber_length	/forceset/glut_max1_l/activation	/forceset/glut_max1_l/fiber_length	/forceset/glut_max2_l/activation	/forceset/glut_max2_l/fiber_length	/forceset/glut_max3_l/activation	/forceset/glut_max3_l/fiber_length	/forceset/iliacus_l/activation	/forceset/iliacus_l/fiber_length	/forceset/psoas_l/activation	/forceset/psoas_l/fiber_length	/forceset/quad_fem_l/activation	/forceset/quad_fem_l/fiber_length	/forceset/gem_l/activation	/forceset/gem_l/fiber_length	/forceset/peri_l/activation	/forceset/peri_l/fiber_length	/forceset/rect_fem_l/activation	/forceset/rect_fem_l/fiber_length	/forceset/vas_int_l/activation	/forceset/vas_int_l/fiber_length	/forceset/med_gas_l/activation	/forceset/med_gas_l/fiber_length	/forceset/lat_gas_l/activation	/forceset/lat_gas_l/fiber_length	/forceset/soleus_l/activation	/forceset/soleus_l/fiber_length	/forceset/tib_post_l/activation	/forceset/tib_post_l/fiber_length	/forceset/flex_dig_l/activation	/forceset/flex_dig_l/fiber_length	/forceset/flex_hal_l/activation	/forceset/flex_hal_l/fiber_length	/forceset/tib_ant_l/activation	/forceset/tib_ant_l/fiber_length	/forceset/per_brev_l/activation	/forceset/per_brev_l/fiber_length	/forceset/per_long_l/activation	/forceset/per_long_l/fiber_length	/forceset/per_tert_l/activation	/forceset/per_tert_l/fiber_length	/forceset/ext_dig_l/activation	/forceset/ext_dig_l/fiber_length	/forceset/ext_hal_l/activation	/forceset/ext_hal_l/fiber_length	/forceset/ercspn_r/activation	/forceset/ercspn_r/fiber_length	/forceset/ercspn_l/activation	/forceset/ercspn_l/fiber_length	/forceset/intobl_r/activation	/forceset/intobl_r/fiber_length	/forceset/intobl_l/activation	/forceset/intobl_l/fiber_length	/forceset/extobl_r/activation	/forceset/extobl_r/fiber_length	/forceset/extobl_l/activation	/forceset/extobl_l/fiber_length
      0.33314254	     20.00000000	     -0.00000000	      0.00000000	      0.00000000	      0.00000000	      0.00000000	      0.25000000	      0.00000000	     -8.52030046	    111.17930101	     -1.64352185	   -485.18564377	     -0.21731419	   -331.60401071	      0.05113764	     -0.40890857	      1.13798650	     -1.60605303	     -0.00084780	     -0.04044438	     11.97450289	    407.84702180	     -0.39408668	    258.32893346	     -5.01847110	  -1071.33628162	    -12.75316157	   -923.77651063	     13.95763813	    178.43004122	     18.18186177	   2264.97179606	      0.00000000	      0.00000000	    -19.99999998	      0.00000000	     10.00000028	      0.00000000	      4.99999985	     -0.00000000	   -119.99999986	      0.00000000	     11.49999977	     -0.00000000	     -0.03000064	     -0.00000000	      0.00000000	      0.00000000	     -4.25023077	   -224.30549391	      1.84376286	    619.24704930	      1.28333700	    403.85366080	      0.43202197	      0.04654322	      0.12895472	      0.08169911	     -0.01744992	      0.06312187	     -0.01741748	      0.09948241	      0.00411534	      0.16622455	     -0.00304428	      0.45737611	     -0.00470729	      0.07695189	      0.15817576	      0.10131488	      0.01254419	      0.06627596	     -0.01256166	      0.31088241	      0.01961290	      0.08332125	      0.00144792	      0.09190000	     -0.01654443	      0.10440817	      0.02086747	      0.09944224	      0.01844531	      0.09356246	     -0.01744992	      0.04495849	     -0.01744992	      0.02417458	     -0.01744992	      0.02237009	      0.15013416	      0.09807058	      0.20207941	      0.07422174	      0.48866097	      0.09041910	      0.61358544	      0.06248876	      0.55068433	      0.08183824	      0.18242548	      0.03200953	      0.13702920	      0.02976853	      0.25533966	      0.03722976	      0.01404876	      0.07542538	      0.70308009	      0.05372263	      0.74358800	      0.05170452	      0.17060132	      0.07820553	      0.05817533	      0.09382519	      0.01202793	      0.09999582	     -0.01744992	      0.04646954	     -0.01744992	      0.07924345	     -0.01744992	      0.06066849	     -0.01744992	      0.02207317	     -0.01744992	      0.12238178	     -0.01744992	      0.45556126	     -0.01744992	      0.05828642	     -0.01744992	      0.13391495	     -0.01744992	      0.07307389	     -0.01744992	      0.24301553	     -0.01744992	      0.06638073	     -0.01744992	      0.06554424	     -0.01744992	      0.05770037	     -0.01744992	      0.11895704	     -0.01744992	      0.11276383	     -0.01744992	      0.04385542	     -0.01744992	      0.02477863	     -0.01744992	      0.02332640	     -0.01744992	      0.18252185	     -0.01744992	      0.13945923	     -0.01744992	      0.06773757	     -0.01744992	      0.04190343	     -0.01744992	      0.08593352	     -0.01744992	      0.03561975	     -0.01744992	      0.03422514	     -0.01744992	      0.04262031	     -0.01744992	      0.07211219	     -0.01744992	      0.05030460	     -0.01744992	      0.05155963	     -0.01744992	      0.07464108	     -0.01744992	      0.08888359	     -0.01744992	      0.09641128	      0.00032944	      0.12132765	      0.15354224	      0.12364907	     -0.01744992	      0.09438424	      0.15868171	      0.09554752	     -0.01744992	      0.12644922	      0.14236026	      0.12945370
      0.33318539	     20.00000000	     -0.00000000	      0.00000000	      0.00000000	      0.00000000	      0.00000000	      0.25000000	      0.00000000	     -8.51552447	    111.71124259	     -1.66436357	   -487.47373577	     -0.23155930	   -333.19902153	      0.05112006	     -0.41129528	      1.13791786	     -1.59729332	     -0.00084955	     -0.04115896	     11.99203195	    410.21035094	     -0.38300744	    258.72581667	     -5.06441641	  -1072.88176469	    -12.79286429	   -929.09529799	     13.96519291	    174.15402156	     18.27906138	   2271.20733343	      0.00000000	      0.00000000	    -19.99999998	      0.00000000	     10.00000028	      0.00000000	      4.99999985	     -0.00000000	   -119.99999986	      0.00000000	     11.49999977	     -0.00000000	     -0.03000064	     -0.00000000	      0.00000000	      0.00000000	     -4.25987497	   -225.77979253	      1.87036176	    622.09226901	      1.30068909	    405.94855301	      0.43528743	      0.04656921	      0.13059332	      0.08171163	     -0.01745544	      0.06311995	     -0.01742299	      0.09947373	      0.00410982	      0.16620739	     -0.00304980	      0.45735664	     -0.00471281	      0.07694586	      0.15918750	      0.10131192	      0.01253722	      0.06626485	     -0.01256718	      0.31085405	      0.02056457	      0.08332136	      0.00219940	      0.09190182	     -0.01654995	      0.10440417	      0.02085560	      0.09943863	      0.01843489	      0.09356005	     -0.01745544	      0.04495253	     -0.01745544	      0.02417088	     -0.01745544	      0.02236722	      0.15141763	      0.09806890	      0.20409795	      0.07424515	      0.48801613	      0.09042398	      0.61265289	      0.06248911	      0.55007191	      0.08184749	      0.18227437	      0.03200537	      0.13692567	      0.02976394	      0.25509827	      0.03722476	      0.01404092	      0.07541443	      0.70619048	      0.05375066	      0.74637251	      0.05170481	      0.17321165	      0.07819877	      0.05954498	      0.09381234	      0.01202126	      0.09998350	     -0.01745544	      0.04646954	     -0.01745544	      0.07924345	     -0.01745544	      0.06066849	     -0.01745544	      0.02207317	     -0.01745544	      0.12238178	     -0.01745544	      0.45556126	     -0.01745544	      0.05828642	     -0.01745544	      0.13391495	     -0.01745544	      0.07307389	     -0.01745544	      0.24301553	     -0.01745544	      0.06638073	     -0.01745544	      0.06554424	     -0.01745544	      0.05770037	     -0.01745544	      0.11895704	     -0.01745544	      0.11276383	     -0.01745544	      0.04385542	     -0.01745544	      0.02477863	     -0.01745544	      0.02332640	     -0.01745544	      0.18252185	     -0.01745544	      0.13945923	     -0.01745544	      0.06773757	     -0.01745544	      0.04190344	     -0.01745544	      0.08593352	     -0.01745544	      0.03561975	     -0.01745544	      0.03422514	     -0.01745544	      0.04262032	     -0.01745544	      0.07211219	     -0.01745544	      0.05030460	     -0.01745544	      0.05155963	     -0.01745544	      0.07464108	     -0.01745544	      0.08888359	     -0.01745544	      0.09641128	      0.00032392	      0.12131359	      0.15522230	      0.12367368	     -0.01745544	      0.09437320	      0.16054527	      0.09555710	     -0.01745544	      0.12640506	      0.14409838	      0.12945597
      0.33322825	     20.00000000	     -0.00000000	      0.00000000	      0.00000000	      0.00000000	      0.00000000	      0.25000000	      0.00000000	     -8.51072587	    112.23448684	     -1.68530221	   -489.70883760	     -0.24587199	   -334.75811459	      0.05110238	     -0.41364130	      1.13784959	     -1.58867903	     -0.00085133	     -0.04186949	     12.00966097	    412.51392611	     -0.37191194	    259.08710706	     -5.11042597	  -1074.33881597	    -12.83279254	   -934.31472460	     13.97256407	    169.84709307	     18.37652408	   2277.32528057	      0.00000000	      0.00000000	    -19.99999998	      0.00000000	     10.00000028	      0.00000000	      4.99999985	     -0.00000000	   -119.99999986	      0.00000000	     11.49999977	     -0.00000000	     -0.03000064	     -0.00000000	      0.00000000	      0.00000000	     -4.26958203	   -227.23960094	      1.89708106	    624.86708512	      1.31813006	    408.00237129	      0.43853676	      0.04659532	      0.13222518	      0.08172429	     -0.01746095	      0.06311808	     -0.01742851	      0.09946498	      0.00410430	      0.16619010	     -0.00305532	      0.45733700	     -0.00471833	      0.07693984	      0.16019340	      0.10130897	      0.01253026	      0.06625373	     -0.01257270	      0.31082557	      0.02151613	      0.08332142	      0.00296288	      0.09190389	     -0.01655547	      0.10440026	      0.02084373	      0.09943489	      0.01842447	      0.09355757	     -0.01746095	      0.04494657	     -0.01746095	      0.02416720	     -0.01746095	      0.02236436	      0.15270265	      0.09806723	      0.20611617	      0.07426882	      0.48737265	      0.09042881	      0.61172267	      0.06248945	      0.54945772	      0.08185668	      0.18212342	      0.03200118	      0.13682225	      0.02975933	      0.25485720	      0.03721974	      0.01403308	      0.07540349	      0.70929300	      0.05377885	      0.74915032	      0.05170512	      0.17582105	      0.07819221	      0.06092451	      0.09379943	      0.01201459	      0.09997118	     -0.01746095	      0.04646954	     -0.01746095	      0.07924345	     -0.01746095	      0.06066849	     -0.01746095	      0.02207317	     -0.01746095	      0.12238178	     -0.01746095	      0.45556126	     -0.01746095	      0.05828642	     -0.01746095	      0.13391495	     -0.01746095	      0.07307389	     -0.01746095	      0.24301553	     -0.01746095	      0.06638073	     -0.01746095	      0.06554424	     -0.01746095	      0.05770037	     -0.01746095	      0.11895704	     -0.01746095	      0.11276383	     -0.01746095	      0.04385542	     -0.01746095	      0.02477863	     -0.01746095	      0.02332640	     -0.01746095	      0.18252185	     -0.01746095	      0.13945923	     -0.01746095	      0.06773757	     -0.01746095	      0.04190344	     -0.01746095	      0.08593352	     -0.01746095	      0.03561975	     -0.01746095	      0.03422515	     -0.01746095	      0.04262033	     -0.01746095	      0.07211219	     -0.01746095	      0.05030460	     -0.01746095	      0.05155963	     -0.01746095	      0.07464108	     -0.01746095	      0.08888359	     -0.01746095	      0.09641128	      0.00031840	      0.12129946	      0.15689885	      0.12369844	     -0.01746095	      0.09436217	      0.16240105	      0.09556882	     -0.01746095	      0.12636065	      0.14582956	      0.12945856
      0.33327110	     20.00000000	     -0.00000000	      0.00000000	      0.00000000	      0.00000000	      0.00000000	      0.25000000	      0.00000000	     -8.50590503	    112.74896551	     -1.70633550	   -491.89075941	     -0.26025072	   -336.28072494	      0.05108461	     -0.41594476	      1.13778169	     -1.58021130	     -0.00085314	     -0.04257640	     12.02738735	    414.75201113	     -0.36080170	    259.41444316	     -5.15649592	  -1075.69510392	    -12.87294181	   -939.39322985	     13.97975064	    165.55633970	     18.47424341	   2283.07942448	      0.00000000	      0.00000000	    -19.99999998	      0.00000000	     10.00000028	      0.00000000	      4.99999985	     -0.00000000	   -119.99999986	      0.00000000	     11.49999977	     -0.00000000	     -0.03000064	     -0.00000000	      0.00000000	      0.00000000	     -4.27935134	   -228.68442784	      1.92391778	    627.57131470	      1.33565816	    410.01436050	      0.44176973	      0.04662155	      0.13385010	      0.08173708	     -0.01746647	      0.06311625	     -0.01743403	      0.09945617	      0.00409879	      0.16617268	     -0.00306083	      0.45731721	     -0.00472385	      0.07693383	      0.16119338	      0.10130602	      0.01252329	      0.06624261	     -0.01257822	      0.31079696	      0.02246739	      0.08332144	      0.00373818	      0.09190622	     -0.01656098	      0.10439644	      0.02083187	      0.09943103	      0.01841406	      0.09355500	     -0.01746647	      0.04494061	     -0.01746647	      0.02416354	     -0.01746647	      0.02236149	      0.15398902	      0.09806558	      0.20813375	      0.07429275	      0.48673052	      0.09043358	      0.61079477	      0.06248978	      0.54884176	      0.08186581	      0.18197264	      0.03199697	      0.13671892	      0.02975469	      0.25461646	      0.03721471	      0.01402525	      0.07539255	      0.71238736	      0.05380720	      0.75192116	      0.05170544	      0.17842935	      0.07818584	      0.06231364	      0.09378648	      0.01200792	      0.09995886	     -0.01746647	      0.04646954	     -0.01746647	      0.07924345	     -0.01746647	      0.06066849	     -0.01746647	      0.02207317	     -0.01746647	      0.12238178	     -0.01746647	      0.45556126	     -0.01746647	      0.05828642	     -0.01746647	      0.13391495	     -0.01746647	      0.07307389	     -0.01746647	      0.24301553	     -0.01746647	      0.06638073	     -0.01746647	      0.06554424	     -0.01746647	      0.05770037	     -0.01746647	      0.11895704	     -0.01746647	      0.11276383	     -0.01746647	      0.04385542	     -0.01746647	      0.02477863	     -0.01746647	      0.02332640	     -0.01746647	      0.18252185	     -0.01746647	      0.13945923	     -0.01746647	      0.06773757	     -0.01746647	      0.04190344	     -0.01746647	      0.08593352	     -0.01746647	      0.03561975	     -0.01746647	      0.03422515	     -0.01746647	      0.04262033	     -0.01746647	      0.07211219	     -0.01746647	      0.05030460	     -0.01746647	      0.05155963	     -0.01746647	      0.07464108	     -0.01746647	      0.08888359	     -0.01746647	      0.09641128	      0.00031288	      0.12128527	      0.15857166	      0.12372335	     -0.01746647	      0.09435113	      0.16424881	      0.09558236	     -0.01746647	      0.12631598	      0.14755360	      0.12946153
